<?xml version="1.0" encoding="iso-8859-1"?>
<!-- Generator: Adobe Illustrator 21.0.0, SVG Export Plug-In . SVG Version: 6.00 Build 0)  -->
<svg version="1.1" id="Capa_1" xmlns="http://www.w3.org/2000/svg" xmlns:xlink="http://www.w3.org/1999/xlink" x="0px" y="0px"
	 viewBox="0 0 217.87 37.67" style="enable-background:new 0 0 217.87 37.67;" xml:space="preserve">
<g>
	<path style="fill-rule:evenodd;clip-rule:evenodd;fill:#E21019;" d="M130.2,13.47L130.2,13.47c0.76,0,1.38,0.62,1.38,1.39v11.49
		c0,0.76-0.62,1.38-1.38,1.38l0,0c-0.76,0-1.39-0.62-1.39-1.38V14.86C128.81,14.1,129.44,13.47,130.2,13.47L130.2,13.47L130.2,13.47
		z"/>
	<path style="fill:#E21019;" d="M148.44,13.93c0.76,0.13,1.28,0.58,1.15,1.34c-0.13,0.76-0.85,1.28-1.61,1.15
		c-2.8-0.48-5.28-0.69-7.26-0.29c-1.77,0.36-3.12,1.11-3.93,2.57c-0.42,0.76-0.7,1.31-0.75,1.93c-0.04,0.53-0.16,1.28,0.26,1.87
		l0.27-0.2c0.26,0.36,0.33,0.9,0.74,1.22c0.44,0.34,0.94,0.64,1.5,0.91c3.03,1.45,7.58,1.86,11.06,0.55
		c0.72-0.27,1.53,0.09,1.8,0.81c0.27,0.72,0.04,1.26-0.68,1.53c-4.17,1.56-9.48,1.15-13.11-0.59c-0.74-0.35-1.42-0.76-2-1.22
		c-0.62-0.48-1.15-1.02-1.57-1.61l0,0c-0.84-1.18-1.13-2.32-1.04-3.5c0.08-1.08,0.5-2.12,1.09-3.2c1.44-2.12,3.32-2.9,5.89-3.42
		C142.59,13.32,145.34,13.4,148.44,13.93L148.44,13.93L148.44,13.93z"/>
	<path style="fill-rule:evenodd;clip-rule:evenodd;fill:#E21019;" d="M143.15,19.77h-8.57v2.05h8.57c0.58,0,1.05-0.46,1.05-1.02l0,0
		C144.2,20.23,143.73,19.77,143.15,19.77L143.15,19.77L143.15,19.77z"/>
	<path style="fill-rule:evenodd;clip-rule:evenodd;fill:#E21019;" d="M165.8,23.67c0.11,0.2,0.17,0.41,0.18,0.63L165.8,23.67
		L165.8,23.67L165.8,23.67z M156.16,17.67v8.68c0,0.76-0.62,1.38-1.39,1.38l0,0c-0.76,0-1.29-0.62-1.29-1.38v-7.81
		c-0.38-3.3,2.93-7.05,6.7-3.54c0.05,0.04,0.09,0.09,0.13,0.14l0,0l0,0c0.03,0.03,0.05,0.06,0.07,0.1c2.05,2.68,3.52,5.59,5.39,8.39
		l0,0l0.01,0.01v0l0,0l0.02,0.03c0.11,0.19,0.21,0.37,0.31,0.55c1.11,1.64,2.68,1.61,2.74-0.43c0.04-1.78,0.04-6.68-0.12-8.75
		c-0.06-0.76,0.62-1.39,1.39-1.39l0,0c0.76,0,1.2,0.62,1.2,1.39v7.28c0.14,2.27-0.53,4.15-1.08,4.69c-0.76,0.85-1.74,1.09-2.79,1.07
		c-0.19,0-0.38-0.02-0.55-0.06c-2.12-0.45-6.29-7.85-7.01-8.9c-0.29-0.42-0.56-0.81-0.82-1.17c-0.22-0.31-0.46-0.63-0.73-0.98
		C157.11,15.91,156.16,16.77,156.16,17.67L156.16,17.67L156.16,17.67z"/>
	<path style="fill:#E21019;" d="M108.31,14.4c-0.3-0.71-1.12-1.04-1.83-0.74c-0.71,0.3-1.04,1.12-0.74,1.83
		c1.41,3.28,3.54,6.65,5.86,9.31c1.54,1.76,2.96,3.06,4.45,3.24c1.53,0.18,2.83-0.74,4.67-2.39c1.67-1.49,2.71-3.13,3.82-5
		c1.09-1.82,1.94-3.63,2.59-5.06c0.31-0.7,0-1.53-0.71-1.84c-0.7-0.31-1.53,0-1.84,0.7c-0.61,1.36-1.48,3.08-2.49,4.77
		c-0.83,1.38-3.91,6.27-5.88,6.04C113.78,24.97,109.6,17.4,108.31,14.4L108.31,14.4L108.31,14.4z"/>
	<path style="fill-rule:evenodd;clip-rule:evenodd;fill:#E21019;" d="M103,13.47L103,13.47c0.76,0,1.39,0.62,1.39,1.39v11.49
		c0,0.76-0.62,1.38-1.39,1.38l0,0c-0.76,0-1.39-0.62-1.39-1.38V14.86C101.61,14.1,102.24,13.47,103,13.47L103,13.47L103,13.47z"/>
	<path style="fill:#E21019;" d="M44.15,16.78c-0.74,0.21-1.52-0.13-1.73-0.87c-0.21-0.74,0.22-1.52,0.96-1.73
		c6.42-1.22,10.29-0.31,13.45,1.19c1.29,0.83,2.55,1.78,3.17,2.89c0.65,1.16,0.93,2.24,0.81,3.48c-0.18,1.89-1.27,3.66-3.33,4.85
		c-1.01,0.59-2.08,0.97-3.19,1.21c-1.06,0.24-2.13,0.35-3.18,0.42c-1.07,0.07-1.97,0.09-2.88-0.02c-0.95-0.12-1.88-0.38-2.93-0.89
		c-0.41-0.2-0.9-0.57-0.99-0.99l-0.04,0.11c0-2.6,0-5.31,0-7.91c0.47-1.37,2.39-0.96,2.41,0l0.18,6.44c-0.3,1.32,3.29,0.85,4.07,0.8
		c0.94-0.06,1.87-0.15,2.75-0.35c0.84-0.19,1.64-0.47,2.39-0.91c1.22-0.71,1.85-2.02,1.95-3.03c0.06-0.66-0.1-1.36-0.47-2.03
		c-0.41-0.73-1.06-1.41-1.94-1.98C53.21,16.1,49.7,15.3,44.15,16.78L44.15,16.78L44.15,16.78z"/>
	<path style="fill:#E21019;" d="M81.23,14.4c-0.3-0.71-1.12-1.04-1.83-0.74c-0.71,0.3-1.04,1.12-0.74,1.83
		c1.41,3.28,3.54,6.65,5.86,9.31c1.54,1.76,2.96,3.06,4.45,3.24c1.53,0.18,2.83-0.74,4.67-2.39c1.67-1.49,2.71-3.13,3.82-5
		c1.08-1.82,1.94-3.63,2.58-5.06c0.31-0.7,0-1.53-0.71-1.84c-0.7-0.31-1.53,0-1.84,0.7c-0.61,1.36-1.48,3.08-2.49,4.77
		c-0.82,1.38-3.91,6.27-5.87,6.04C86.7,24.97,82.52,17.4,81.23,14.4L81.23,14.4L81.23,14.4z"/>
	<path style="fill:#E21019;" d="M79.3,27.21c0.3,0.71,1.12,1.04,1.83,0.74c0.71-0.3,1.04-1.12,0.74-1.83
		c-1.41-3.28-3.54-6.65-5.86-9.31c-1.54-1.76-2.96-3.06-4.45-3.24c-1.53-0.18-2.83,0.74-4.67,2.39c-1.67,1.49-2.71,3.13-3.82,5
		c-1.09,1.82-1.94,3.63-2.59,5.06c-0.31,0.7,0,1.53,0.71,1.84c0.7,0.31,1.53,0,1.84-0.71c0.61-1.36,1.48-3.08,2.49-4.77
		c0.82-1.38,3.91-6.27,5.87-6.04C73.83,16.64,78.01,24.2,79.3,27.21L79.3,27.21L79.3,27.21z"/>
	<path style="fill:#E21019;" d="M175.07,16.78c-0.74,0.21-1.52-0.13-1.73-0.87c-0.21-0.74,0.22-1.52,0.96-1.73
		c6.42-1.22,10.29-0.31,13.45,1.19c1.29,0.83,2.55,1.78,3.17,2.89c0.65,1.16,0.93,2.24,0.81,3.48c-0.18,1.89-1.27,3.66-3.32,4.85
		c-1.01,0.59-2.09,0.97-3.19,1.21c-1.06,0.24-2.13,0.35-3.18,0.42c-1.07,0.07-1.97,0.09-2.88-0.02c-0.95-0.12-1.88-0.38-2.93-0.89
		c-0.41-0.2-0.9-0.57-0.99-0.99l-0.04,0.11c0-2.6,0-5.31,0-7.91c0.47-1.37,2.39-0.96,2.41,0l0.18,6.44c-0.3,1.32,3.29,0.85,4.07,0.8
		c0.94-0.06,1.87-0.15,2.75-0.35c0.84-0.19,1.64-0.47,2.39-0.91c1.21-0.71,1.85-2.02,1.95-3.03c0.06-0.66-0.1-1.36-0.47-2.03
		c-0.41-0.73-1.06-1.41-1.94-1.98C184.13,16.1,180.62,15.3,175.07,16.78L175.07,16.78L175.07,16.78z"/>
	<path style="fill:#E21019;" d="M193.93,27.21c-0.3,0.71-1.12,1.04-1.83,0.74c-0.71-0.3-1.04-1.12-0.74-1.83
		c1.41-3.28,3.54-6.65,5.86-9.31c1.54-1.76,2.96-3.06,4.45-3.24c1.53-0.18,2.83,0.74,4.67,2.39c1.67,1.49,2.71,3.13,3.82,5
		c1.08,1.82,1.94,3.63,2.58,5.06c0.31,0.7,0,1.53-0.7,1.84c-0.7,0.31-1.53,0-1.84-0.71c-0.61-1.36-1.48-3.08-2.49-4.77
		c-0.82-1.38-3.91-6.27-5.87-6.04C199.4,16.64,195.22,24.2,193.93,27.21L193.93,27.21L193.93,27.21z"/>
	<path style="fill-rule:evenodd;clip-rule:evenodd;fill:#E21019;" d="M31.99,16.51c-0.07,0.58-0.25,3.34,1.99,6.04
		c4.15,5-1.47,10.35-7.87,9.06c0,0-2.57,0.52-5.39,0.52c-2.83,0-5.41-0.52-5.41-0.52c-6.4,1.3-12.13-4.06-7.98-9.06
		c2.24-2.7,2.06-5.46,1.99-6.04H31.99L31.99,16.51L31.99,16.51z"/>
	<path style="fill:none;stroke:#2B2422;stroke-width:0.4277;stroke-miterlimit:22.9256;" d="M31.99,16.51
		c-0.07,0.58-0.25,3.34,1.99,6.04c4.15,5-1.47,10.35-7.87,9.06c0,0-2.57,0.52-5.39,0.52c-2.83,0-5.41-0.52-5.41-0.52
		c-6.4,1.3-12.13-4.06-7.98-9.06c2.24-2.7,2.06-5.46,1.99-6.04H31.99L31.99,16.51L31.99,16.51z"/>
	<path style="fill-rule:evenodd;clip-rule:evenodd;fill:#E21019;" d="M24.49,29.92L24.49,29.92c0,0,0.15-1.03,0.76-1.73
		c0.3-0.35,0.92-0.37,0.73,0.23c-0.05,0.16-0.79,0.92-1.23,1.72C24.68,30.29,24.49,29.92,24.49,29.92L24.49,29.92L24.49,29.92z
		 M15.8,30.57L15.8,30.57c0,0-0.36-0.97-1.11-1.54c-0.36-0.28-0.97-0.17-0.67,0.38c0.08,0.15,0.97,0.73,1.56,1.43
		C15.7,30.97,15.8,30.57,15.8,30.57L15.8,30.57L15.8,30.57z M16.94,29.92L16.94,29.92c0,0-0.15-1.03-0.76-1.73
		c-0.3-0.35-0.92-0.37-0.73,0.23c0.05,0.16,0.79,0.92,1.23,1.72C16.76,30.29,16.94,29.92,16.94,29.92L16.94,29.92L16.94,29.92z
		 M25.63,30.57c0,0,0.36-0.97,1.1-1.54c0.36-0.28,0.98-0.17,0.67,0.38c-0.08,0.15-0.97,0.73-1.56,1.43
		C25.74,30.97,25.63,30.57,25.63,30.57L25.63,30.57L25.63,30.57z"/>
	<path style="fill:none;stroke:#2B2422;stroke-width:0.428;stroke-miterlimit:22.9256;" d="M24.49,29.92L24.49,29.92
		c0,0,0.15-1.03,0.76-1.73c0.3-0.35,0.92-0.37,0.73,0.23c-0.05,0.16-0.79,0.92-1.23,1.72C24.68,30.29,24.49,29.92,24.49,29.92
		L24.49,29.92L24.49,29.92z M15.8,30.57L15.8,30.57c0,0-0.36-0.97-1.11-1.54c-0.36-0.28-0.97-0.17-0.67,0.38
		c0.08,0.15,0.97,0.73,1.56,1.43C15.7,30.97,15.8,30.57,15.8,30.57L15.8,30.57L15.8,30.57z M16.94,29.92L16.94,29.92
		c0,0-0.15-1.03-0.76-1.73c-0.3-0.35-0.92-0.37-0.73,0.23c0.05,0.16,0.79,0.92,1.23,1.72C16.76,30.29,16.94,29.92,16.94,29.92
		L16.94,29.92L16.94,29.92z M25.63,30.57c0,0,0.36-0.97,1.1-1.54c0.36-0.28,0.98-0.17,0.67,0.38c-0.08,0.15-0.97,0.73-1.56,1.43
		C25.74,30.97,25.63,30.57,25.63,30.57L25.63,30.57L25.63,30.57z"/>
	<path style="fill-rule:evenodd;clip-rule:evenodd;fill:#FFEB00;" d="M17.87,29.75c2.62-0.91,5.13-0.2,5.71-0.01l0.06-0.15
		c0,0,0.34-0.78-0.14-0.94l-0.21-0.07l0.08-0.21c0-0.01,1.33-3.46-0.14-6.59c-0.23-0.49-0.53-0.98-0.92-1.35
		c-0.37-0.36-0.83-0.63-1.39-0.72c-0.13-0.01-0.26-0.01-0.39,0.01c-0.13,0.02-0.27,0.05-0.41,0.1c-0.51,0.18-0.89,0.45-1.2,0.8
		c-0.32,0.36-0.57,0.8-0.81,1.31c-1.44,3.05-0.04,6.45-0.04,6.46l0.08,0.21l-0.21,0.07c-0.48,0.16-0.14,0.94-0.14,0.94L17.87,29.75
		L17.87,29.75z"/>
	<path style="fill:#FFFFFF;" d="M23.12,25.34c-0.05,0.05-0.09,0.13-0.09,0.21c0,0.08,0.03,0.16,0.09,0.21
		c0.05,0.05,0.13,0.09,0.22,0.09c0.09,0,0.16-0.03,0.22-0.09c0.05-0.05,0.09-0.13,0.09-0.21c0-0.08-0.03-0.16-0.09-0.21
		c-0.05-0.05-0.13-0.09-0.22-0.09S23.18,25.29,23.12,25.34L23.12,25.34z"/>
	<path style="fill:#2B2422;" d="M22.61,25.55c0-0.2,0.08-0.38,0.22-0.51c0.13-0.13,0.32-0.21,0.52-0.21c0.2,0,0.38,0.08,0.52,0.21
		c0.13,0.13,0.22,0.31,0.22,0.51c0,0.2-0.08,0.38-0.22,0.51c-0.13,0.13-0.32,0.21-0.52,0.21c-0.2,0-0.38-0.08-0.52-0.21
		C22.69,25.94,22.61,25.75,22.61,25.55L22.61,25.55z M23.12,25.34c-0.05,0.05-0.09,0.13-0.09,0.21c0,0.08,0.03,0.16,0.09,0.21
		c0.05,0.05,0.13,0.09,0.22,0.09c0.09,0,0.16-0.03,0.22-0.09c0.05-0.05,0.09-0.13,0.09-0.21c0-0.08-0.03-0.16-0.09-0.21
		c-0.05-0.05-0.13-0.09-0.22-0.09S23.18,25.29,23.12,25.34L23.12,25.34z"/>
	<path style="fill-rule:evenodd;clip-rule:evenodd;fill:#1F92D1;" d="M14.34,20.71h-3.69c-0.23,0-0.44,0.09-0.6,0.24
		c-0.15,0.15-0.25,0.36-0.25,0.59v2.47c0,0.23,0.09,0.44,0.25,0.59c0.15,0.15,0.36,0.24,0.6,0.24h3.69c0.23,0,0.44-0.09,0.6-0.24
		c0.15-0.15,0.25-0.36,0.25-0.59v-2.47c0-0.23-0.09-0.44-0.25-0.59C14.79,20.81,14.58,20.71,14.34,20.71L14.34,20.71z"/>
	<path style="fill:#2B2422;" d="M10.65,20.29h3.69c0.35,0,0.67,0.14,0.9,0.37c0.23,0.23,0.37,0.55,0.37,0.89v2.47
		c0,0.35-0.14,0.67-0.37,0.89c-0.23,0.23-0.55,0.37-0.9,0.37h-3.69c-0.35,0-0.67-0.14-0.9-0.37c-0.23-0.23-0.37-0.55-0.37-0.89
		v-2.47c0-0.35,0.14-0.66,0.37-0.89C9.99,20.43,10.3,20.29,10.65,20.29L10.65,20.29z M14.34,20.71h-3.69c-0.23,0-0.44,0.09-0.6,0.24
		c-0.15,0.15-0.25,0.36-0.25,0.59v2.47c0,0.23,0.09,0.44,0.25,0.59c0.15,0.15,0.36,0.24,0.6,0.24h3.69c0.23,0,0.44-0.09,0.6-0.24
		c0.15-0.15,0.25-0.36,0.25-0.59v-2.47c0-0.23-0.09-0.44-0.25-0.59C14.79,20.81,14.58,20.71,14.34,20.71L14.34,20.71z"/>
	<path style="fill:#2B2422;" d="M11.08,20.88H14c0.28,0,0.53,0.11,0.71,0.29c0.18,0.18,0.3,0.43,0.3,0.71v1.8
		c0,0.28-0.11,0.53-0.3,0.71c-0.18,0.18-0.44,0.29-0.71,0.29h-2.92c-0.28,0-0.53-0.11-0.71-0.29c-0.18-0.18-0.3-0.43-0.3-0.71v-1.8
		c0-0.28,0.11-0.53,0.3-0.71C10.55,20.99,10.8,20.88,11.08,20.88L11.08,20.88z"/>
	<path style="fill-rule:evenodd;clip-rule:evenodd;fill:#F39000;" d="M13.58,22.18c0.23,0.35,0.55,0.68,1,0.8v-1.1
		c0-0.16-0.07-0.3-0.17-0.41c-0.11-0.1-0.25-0.17-0.41-0.17h-0.81C13.26,21.55,13.39,21.88,13.58,22.18L13.58,22.18z"/>
	<path style="fill-rule:evenodd;clip-rule:evenodd;fill:#F39000;" d="M11.55,22.19c0.19-0.31,0.31-0.64,0.37-0.89h-0.84
		c-0.16,0-0.31,0.06-0.41,0.17c-0.1,0.1-0.17,0.25-0.17,0.41V23C10.98,22.9,11.32,22.56,11.55,22.19L11.55,22.19z"/>
	<path style="fill-rule:evenodd;clip-rule:evenodd;fill:#EE7B00;" d="M24.86,31.27c0.09-0.23,0.15-0.55-0.01-0.86
		c-0.21-0.39-1.06-0.53-1.06-0.53l-0.24-0.05l0.09-0.23l0.02-0.04c-2.7-0.27-4.8-0.14-5.88-0.03c0.02,0.04,0.03,0.07,0.03,0.07
		l0.09,0.23l-0.24,0.05c0,0-0.85,0.15-1.06,0.53c-0.16,0.3-0.1,0.62-0.01,0.85c1,0.14,2.53,0.31,4.15,0.31
		C22.34,31.58,23.86,31.41,24.86,31.27L24.86,31.27z M25.19,30.17c-0.14-0.23-0.39-0.39-0.64-0.5
		C24.8,29.78,25.05,29.94,25.19,30.17L25.19,30.17z M24.54,29.66c-0.03-0.02-0.07-0.03-0.1-0.04L24.54,29.66L24.54,29.66z"/>
	<path style="fill-rule:evenodd;clip-rule:evenodd;fill:#E21019;" d="M28.25,9.34l0-2.88l3.58-0.21l0.15,4.71
		c-1.65-1.1-1.94-0.85-3.05-1.24C28.7,9.59,28.47,9.46,28.25,9.34L28.25,9.34z"/>
	<path style="fill:#2B2422;" d="M27.7,9.44l0-3.49l4.65-0.27l0.2,6.33l-0.88-0.58c-1.07-0.71-1.51-0.81-2.02-0.93
		c-0.42-0.1-0.87-0.2-1.63-0.55L27.7,9.79L27.7,9.44L27.7,9.44z M28.79,6.97l0,2.11c0.48,0.2,0.8,0.27,1.11,0.34
		c0.45,0.1,0.85,0.2,1.5,0.55l-0.1-3.15L28.79,6.97L28.79,6.97z"/>
	<path style="fill:#2B2422;" d="M32.53,16.57c-0.03,0.26-0.09,1.03,0.12,2.05c0.21,1.03,0.7,2.31,1.75,3.58
		c0.98,1.18,1.46,2.39,1.54,3.55c0.08,1.24-0.29,2.41-1.01,3.42c-0.7,0.98-1.73,1.8-2.96,2.36c-1.66,0.76-3.72,1.05-5.85,0.64
		c-0.5,0.09-2.85,0.51-5.39,0.51c-2.55,0-4.91-0.41-5.41-0.51c-2.15,0.41-4.23,0.11-5.91-0.65c-1.24-0.56-2.27-1.38-2.98-2.37
		c-0.72-1.01-1.11-2.18-1.02-3.42c0.08-1.15,0.55-2.34,1.52-3.51c0.77-0.93,1.24-1.87,1.51-2.71c0.48-1.44,0.39-2.59,0.35-2.92
		l1.08-0.13c0.05,0.39,0.14,1.74-0.4,3.39c-0.31,0.95-0.84,2.01-1.71,3.06c-0.81,0.98-1.21,1.96-1.27,2.89
		c-0.07,0.98,0.24,1.91,0.82,2.72c0.6,0.83,1.48,1.52,2.55,2.01c1.52,0.69,3.41,0.95,5.36,0.56l0.21,0c0.01,0,2.53,0.51,5.31,0.51
		c2.78,0,5.28-0.51,5.29-0.51l0.21,0c1.94,0.39,3.8,0.14,5.3-0.54c1.06-0.48,1.93-1.17,2.52-2c0.57-0.8,0.88-1.73,0.81-2.71
		c-0.06-0.94-0.47-1.94-1.29-2.93c-1.19-1.43-1.74-2.89-1.98-4.06c-0.24-1.18-0.17-2.08-0.14-2.39L32.53,16.57L32.53,16.57z"/>
	<path style="fill-rule:evenodd;clip-rule:evenodd;fill:#EE7B00;" d="M20.63,6.09c-0.21,0-0.67,0.14-0.75,0.17
		c-0.02,0.01-8.53,2.95-13.21,7.58c-0.29,0.29-0.47,0.6-0.54,0.89c-0.06,0.23-0.05,0.45,0.02,0.64c0.07,0.18,0.19,0.33,0.36,0.43
		c0.18,0.11,0.42,0.17,0.72,0.17h26.82c0.29,0,0.53-0.06,0.71-0.17c0.17-0.11,0.3-0.26,0.36-0.43c0.07-0.19,0.08-0.41,0.02-0.64
		c-0.07-0.29-0.25-0.59-0.54-0.88C29.92,9.2,21.41,6.27,21.38,6.26C21.31,6.23,20.84,6.09,20.63,6.09L20.63,6.09z"/>
	<path style="fill:#2B2422;" d="M20.63,6.09c-0.21,0-0.67,0.14-0.75,0.17c-0.02,0.01-8.53,2.95-13.21,7.58
		c-0.29,0.29-0.47,0.6-0.54,0.89c-0.06,0.23-0.05,0.45,0.02,0.64c0.07,0.18,0.19,0.33,0.36,0.43c0.18,0.11,0.42,0.17,0.72,0.17
		h26.82c0.29,0,0.53-0.06,0.71-0.17c0.17-0.11,0.3-0.26,0.36-0.43c0.07-0.19,0.08-0.41,0.02-0.64c-0.07-0.29-0.25-0.59-0.54-0.88
		C29.92,9.2,21.41,6.27,21.38,6.26C21.31,6.23,20.84,6.09,20.63,6.09L20.63,6.09z M19.53,5.23c0,0,0.72-0.23,1.1-0.23
		c0.38,0,1.1,0.23,1.1,0.23l0.01,0c0.02,0.01,8.76,3.02,13.62,7.84c0.44,0.44,0.71,0.92,0.83,1.39c0.11,0.45,0.09,0.9-0.06,1.29
		c-0.15,0.4-0.43,0.74-0.81,0.98c-0.35,0.21-0.78,0.34-1.28,0.34H7.22c-0.5,0-0.93-0.12-1.28-0.34c-0.39-0.24-0.66-0.58-0.81-0.98
		c-0.15-0.39-0.17-0.83-0.06-1.29c0.12-0.47,0.39-0.95,0.83-1.39c4.86-4.82,13.59-7.83,13.62-7.84L19.53,5.23L19.53,5.23z"/>
	<path style="fill-rule:evenodd;clip-rule:evenodd;fill:#1F92D1;" d="M23.05,19.81c-0.29-0.26-0.63-0.49-0.97-0.68
		c-0.45-0.24-0.81-0.37-1.16-0.38c-0.36-0.02-0.73,0.08-1.19,0.28c-0.46,0.2-0.91,0.48-1.3,0.8c-0.39,0.32-0.73,0.7-0.97,1.08
		c-0.38,0.6-0.89,1.57-1.12,2.81c-0.16,0.86-0.2,1.85,0.03,2.92l0.03,0.15l-0.13,0.08c-0.01,0-1.81,1.08-2.31,1.96
		c-0.32,0.75,0.63,1.98,1.09,2.6l0.08,0.11h1.1c-0.15-0.32-0.28-0.83-0.01-1.32c0.22-0.41,0.79-0.61,1.11-0.69
		c-0.09-0.32-0.17-0.89,0.28-1.17c-0.27-0.77-1.2-3.82,0.12-6.6c0.26-0.54,0.53-1.02,0.88-1.41c0.36-0.4,0.8-0.71,1.38-0.91
		c0.16-0.06,0.33-0.1,0.49-0.12c0.16-0.02,0.33-0.03,0.49-0.01l0.01,0c0.66,0.1,1.19,0.41,1.63,0.84c0.42,0.41,0.75,0.94,1,1.47
		c1.34,2.86,0.48,5.95,0.22,6.74c0.46,0.28,0.38,0.85,0.29,1.18c0.32,0.08,0.88,0.29,1.1,0.69c0.27,0.49,0.13,1-0.01,1.32h1.1
		l0.27-0.34c0.57-0.71,1.31-1.63,0.76-2.18c-1.47-1.45-2.2-2.17-2.2-2.18l-0.08-0.08l0.02-0.11c0.3-1.43,0.15-2.7-0.17-3.73
		c-0.31-1.03-0.78-1.81-1.09-2.25C23.62,20.37,23.35,20.08,23.05,19.81L23.05,19.81z"/>
	<path style="fill:#2B2422;" d="M22.28,18.76c0.38,0.2,0.74,0.45,1.05,0.73c0.32,0.28,0.61,0.6,0.83,0.93
		c0.32,0.47,0.81,1.29,1.14,2.37c0.32,1.06,0.49,2.36,0.2,3.83l2.12,2.1c0.82,0.82-0.05,1.9-0.72,2.75
		c-0.12,0.14-0.23,0.28-0.32,0.41l-0.06,0.09h-2.11l0.25-0.34c0,0,0.49-0.63,0.18-1.2c-0.21-0.39-1.06-0.53-1.06-0.53l-0.24-0.05
		l0.09-0.23l0.02-0.04c-2.7-0.27-4.8-0.14-5.88-0.03c0.02,0.04,0.03,0.07,0.03,0.07l0.09,0.23l-0.24,0.05c0,0-0.85,0.15-1.06,0.53
		c-0.31,0.57,0.18,1.2,0.18,1.2l0.25,0.34h-2.11l-0.21-0.27c-0.52-0.68-1.57-2.05-1.14-3.03l0.01-0.02c0.46-0.82,1.9-1.77,2.34-2.05
		c-0.21-1.08-0.17-2.07,0-2.94c0.25-1.31,0.78-2.33,1.18-2.96c0.27-0.42,0.63-0.83,1.06-1.18c0.42-0.35,0.9-0.65,1.4-0.86
		c0.52-0.22,0.95-0.33,1.37-0.31C21.36,18.35,21.78,18.49,22.28,18.76L22.28,18.76z M23.75,29.13c0.01-0.2-0.03-0.4-0.26-0.48
		l-0.21-0.07l0.08-0.21c0-0.01,1.33-3.46-0.14-6.59c-0.23-0.49-0.53-0.98-0.92-1.35c-0.37-0.36-0.83-0.63-1.39-0.72
		c-0.13-0.01-0.26-0.01-0.39,0.01c-0.13,0.02-0.27,0.05-0.41,0.1c-0.51,0.18-0.89,0.45-1.2,0.8c-0.32,0.36-0.57,0.8-0.81,1.31
		c-1.44,3.05-0.04,6.45-0.04,6.46l0.08,0.21l-0.21,0.07c-0.21,0.07-0.27,0.26-0.26,0.45C18.78,28.99,20.96,28.84,23.75,29.13
		L23.75,29.13z M23.05,19.81c-0.29-0.26-0.63-0.49-0.97-0.68c-0.45-0.24-0.81-0.37-1.16-0.38c-0.36-0.02-0.73,0.08-1.19,0.28
		c-0.46,0.2-0.91,0.48-1.3,0.8c-0.39,0.32-0.73,0.7-0.97,1.08c-0.38,0.6-0.89,1.57-1.12,2.81c-0.16,0.86-0.2,1.85,0.03,2.92
		l0.03,0.15l-0.13,0.08c-0.01,0-1.81,1.08-2.31,1.96c-0.32,0.75,0.63,1.98,1.09,2.6l0.08,0.11h1.1c-0.15-0.32-0.28-0.83-0.01-1.32
		c0.15-0.28,0.47-0.46,0.76-0.58l0.01,0l0.01,0l0,0l0,0l0.01,0l0.01,0l0,0l0,0l0.01,0l0.01,0l0.01,0l0,0l0.01,0l0.01,0l0.01,0l0,0
		l0.01,0l0.01,0l0.01,0l0,0l0,0l0.01,0l0.01,0l0,0l0,0l0.01,0l0.01,0l0,0l0,0l0.01,0l0.01,0h0l0.01,0l0.01,0l0.01,0l0,0l0,0l0.01,0
		l0.01,0l0,0l0,0l0.01,0l0.01,0l0,0l0,0l0.01,0l0.01,0l0.01,0h0l0.01,0l0.01,0l0.01,0l0,0l0,0l0.01,0l0.01,0l0,0l0,0l0.01,0l0.01,0
		l0,0l0,0l0.01,0l0.01,0l0.01,0l0.01,0l0,0l0.01,0l0,0l0,0l0,0l0.01,0l0,0l0,0l0,0l0,0l0,0l0,0l0,0l0,0l0,0l0,0l0,0l0,0l0,0l0,0l0,0
		l0,0l0,0l0,0l0,0l0-0.01l0,0l0,0l0-0.01l0-0.01l0,0l0,0l0-0.01l0-0.01l0,0v0l0-0.01l0-0.01l0-0.01l0,0l0,0l0-0.01l0-0.01l0,0l0,0
		l0-0.01l0-0.01l0,0l0,0l0-0.01l0-0.01l0,0l0,0l0-0.01l0-0.01l0-0.01l0,0l0-0.01l0-0.01l0-0.01v0l0-0.01l0-0.01l0-0.01l0,0l0,0
		l0-0.01l0-0.01l0,0l0,0l0-0.01l0-0.01l0,0l0,0l0-0.01l0-0.01l0-0.01l0,0l0-0.01l0-0.01l0-0.01l0,0l0-0.01l0-0.01l0-0.01l0,0l0,0
		l0-0.01l0-0.01l0,0l0,0l0-0.01l0-0.01l0,0v0l0-0.01l0-0.01l0-0.01v0c-0.02-0.29,0.04-0.62,0.35-0.81c-0.27-0.77-1.2-3.82,0.12-6.6
		c0.26-0.54,0.53-1.02,0.88-1.41c0.36-0.4,0.8-0.71,1.38-0.91c0.16-0.06,0.33-0.1,0.49-0.12c0.16-0.02,0.33-0.03,0.49-0.01l0.01,0
		c0.66,0.1,1.19,0.41,1.63,0.84c0.42,0.41,0.75,0.94,1,1.47c1.34,2.86,0.48,5.95,0.22,6.74c0.32,0.2,0.38,0.54,0.35,0.84v0l0,0.01
		l0,0.01l0,0.01l0,0l0,0l0,0.01l0,0.01l0,0l0,0l0,0.01l0,0.01l0,0.01l0,0l0,0l0,0.01l0,0.01l0,0l0,0l0,0.01l0,0.01l0,0v0l0,0.01
		l0,0.01l0,0.01v0l0,0l0,0.01l0,0.01l0,0l0,0l0,0.01l0,0.01l0,0.01l0,0.01l0,0.01l0,0.01l0,0l0,0l0,0.01l0,0.01l0,0l0,0l0,0.01
		l0,0.01l0,0.01v0l0,0l0,0.01l0,0.01l0,0l0,0l0,0.01l0,0.01l0,0v0l0,0.01l0,0l0,0.01l0,0l0,0l0,0l0,0.01l0,0l0,0l0,0l0,0l0,0v0l0,0
		l0,0l0,0l0,0l0,0l0,0l0,0l0,0l0,0l0,0l0,0l0,0l0,0l0,0l0,0l0,0l0,0l0,0l0,0l0,0l0,0l0,0l0,0l0,0l0,0l0,0l0,0l0,0l0,0l0,0l0,0l0,0
		l0,0l0,0l0,0l0,0l0,0l0,0l0,0l0,0l0,0l0,0l0,0l0,0l0,0l0,0l0,0l0,0l0,0l0,0l0,0l0,0l0,0l0,0l0,0l0,0l0,0l0,0l0,0l0,0l0,0l0,0l0,0
		l0,0l0,0l0,0l0,0l0,0l0,0l0,0l0,0l0,0l0,0l0,0l0,0h0l0,0l0,0l0,0l0,0h0l0,0l0,0l0,0l0,0l0,0l0,0l0,0l0,0l0,0l0,0l0,0
		c0.3,0.11,0.66,0.3,0.82,0.6c0.27,0.49,0.13,1-0.01,1.32h1.1l0.27-0.34c0.57-0.71,1.31-1.63,0.76-2.18
		c-1.47-1.45-2.2-2.17-2.2-2.18l-0.08-0.08l0.02-0.11c0.3-1.43,0.15-2.7-0.17-3.73c-0.31-1.03-0.78-1.81-1.09-2.25
		C23.62,20.37,23.35,20.08,23.05,19.81L23.05,19.81z"/>
	<path style="fill-rule:evenodd;clip-rule:evenodd;fill:#1F92D1;" d="M30.83,20.71h-3.69c-0.23,0-0.44,0.09-0.6,0.24
		c-0.15,0.15-0.25,0.36-0.25,0.59v2.47c0,0.23,0.09,0.44,0.25,0.59c0.15,0.15,0.36,0.24,0.6,0.24h3.69c0.23,0,0.44-0.09,0.6-0.24
		c0.15-0.15,0.25-0.36,0.25-0.59v-2.47c0-0.23-0.09-0.44-0.25-0.59C31.27,20.81,31.06,20.71,30.83,20.71L30.83,20.71z"/>
	<path style="fill:#2B2422;" d="M27.14,20.29h3.69c0.35,0,0.67,0.14,0.9,0.37c0.23,0.23,0.37,0.55,0.37,0.89v2.47
		c0,0.35-0.14,0.67-0.37,0.89c-0.23,0.23-0.55,0.37-0.9,0.37h-3.69c-0.35,0-0.67-0.14-0.9-0.37c-0.23-0.23-0.37-0.55-0.37-0.89
		v-2.47c0-0.35,0.14-0.66,0.37-0.89C26.47,20.43,26.79,20.29,27.14,20.29L27.14,20.29z M30.83,20.71h-3.69
		c-0.23,0-0.44,0.09-0.6,0.24c-0.15,0.15-0.25,0.36-0.25,0.59v2.47c0,0.23,0.09,0.44,0.25,0.59c0.15,0.15,0.36,0.24,0.6,0.24h3.69
		c0.23,0,0.44-0.09,0.6-0.24c0.15-0.15,0.25-0.36,0.25-0.59v-2.47c0-0.23-0.09-0.44-0.25-0.59C31.27,20.81,31.06,20.71,30.83,20.71
		L30.83,20.71z"/>
	<path style="fill:#2B2422;" d="M27.56,20.88h2.92c0.28,0,0.53,0.11,0.71,0.29c0.18,0.18,0.3,0.43,0.3,0.71v1.8
		c0,0.28-0.11,0.53-0.3,0.71c-0.18,0.18-0.44,0.29-0.71,0.29h-2.92c-0.28,0-0.53-0.11-0.71-0.29c-0.18-0.18-0.3-0.43-0.3-0.71v-1.8
		c0-0.28,0.11-0.53,0.3-0.71C27.03,20.99,27.28,20.88,27.56,20.88L27.56,20.88z"/>
	<path style="fill-rule:evenodd;clip-rule:evenodd;fill:#F39000;" d="M30.06,22.18c0.23,0.35,0.55,0.68,1,0.8v-1.1
		c0-0.16-0.07-0.3-0.17-0.41c-0.11-0.1-0.25-0.17-0.41-0.17h-0.81C29.74,21.55,29.87,21.88,30.06,22.18L30.06,22.18z"/>
	<path style="fill-rule:evenodd;clip-rule:evenodd;fill:#F39000;" d="M28.03,22.19c0.19-0.31,0.31-0.64,0.37-0.89h-0.84
		c-0.16,0-0.31,0.06-0.41,0.17c-0.1,0.1-0.17,0.25-0.17,0.41V23C27.47,22.9,27.8,22.56,28.03,22.19L28.03,22.19z"/>
</g>
</svg>
