<?xml version="1.0" encoding="UTF-8"?>
<!DOCTYPE svg PUBLIC "-//W3C//DTD SVG 1.1//EN" "http://www.w3.org/Graphics/SVG/1.1/DTD/svg11.dtd">
<svg xmlns="http://www.w3.org/2000/svg" version="1.1" width="3840px" height="2160px" style="shape-rendering:geometricPrecision; text-rendering:geometricPrecision; image-rendering:optimizeQuality; fill-rule:evenodd; clip-rule:evenodd" xmlns:xlink="http://www.w3.org/1999/xlink">
<g><path style="opacity:1" fill="#001da3" d="M 2218.5,59.5 C 2368.19,54.3512 2504.19,94.5178 2626.5,180C 2630.53,183.342 2634.53,186.675 2638.5,190C 2585.72,253.115 2532.56,315.949 2479,378.5C 2443.99,349.061 2405.82,324.228 2364.5,304C 2313.62,280.207 2260.62,273.54 2205.5,284C 2176.31,289.838 2152.14,304.005 2133,326.5C 2112.48,358.562 2113.81,389.562 2137,419.5C 2152.33,436.84 2169.5,452.007 2188.5,465C 2236.5,496 2284.5,527 2332.5,558C 2374.94,587.092 2413.11,621.258 2447,660.5C 2477.45,696.061 2498.45,736.727 2510,782.5C 2519.59,827.351 2516.59,871.351 2501,914.5C 2436.78,1082.65 2314.61,1174.15 2134.5,1189C 1949.6,1206.69 1777.6,1168.02 1618.5,1073C 1616.28,1071.73 1614.28,1070.23 1612.5,1068.5C 1658.5,997.158 1705,926.158 1752,855.5C 1790.28,878.728 1829.45,900.561 1869.5,921C 1943.13,953.853 2020.13,966.52 2100.5,959C 2154.09,951.821 2189.25,922.654 2206,871.5C 2210.53,847.746 2204.53,827.08 2188,809.5C 2166.23,788.544 2142.4,770.377 2116.5,755C 2063.79,724.987 2013.12,691.987 1964.5,656C 1932.15,631.649 1902.98,603.816 1877,572.5C 1824.43,506.848 1807.76,432.848 1827,350.5C 1855.86,220.641 1933.03,133.807 2058.5,90C 2110.59,72.5991 2163.92,62.4324 2218.5,59.5 Z"/></g>
<g><path style="opacity:1" fill="#001da3" d="M 75.5,82.5 C 239.5,82.5 403.5,82.5 567.5,82.5C 581.137,276.756 593.637,471.089 605,665.5C 607.459,708.82 607.959,752.153 606.5,795.5C 607.822,795.67 608.989,795.337 610,794.5C 616.959,767.62 626.293,741.62 638,716.5C 648.823,694.187 660.156,672.187 672,650.5C 779.661,461.174 887.828,272.174 996.5,83.5C 1098.5,82.1667 1200.5,82.1667 1302.5,83.5C 1098.83,442.833 895.167,802.167 691.5,1161.5C 590.169,1162.5 488.836,1162.83 387.5,1162.5C 355.85,877.154 324.017,591.821 292,306.5C 286.612,268.666 274.279,233.333 255,200.5C 229.501,161.69 194.334,135.856 149.5,123C 123.609,116.182 97.2756,112.682 70.5,112.5C 71.9106,102.449 73.5773,92.4485 75.5,82.5 Z"/></g>
<g><path style="opacity:1" fill="#001da3" d="M 1454.5,82.5 C 1552.17,82.1667 1649.84,82.5 1747.5,83.5C 1638.29,443.12 1529.29,802.786 1420.5,1162.5C 1322.83,1162.5 1225.17,1162.5 1127.5,1162.5C 1236.09,802.387 1345.09,442.387 1454.5,82.5 Z"/></g>
<g><path style="opacity:1" fill="#001da3" d="M 3652.5,83.5 C 3695.96,80.481 3729.79,96.8143 3754,132.5C 3768.17,158.659 3772.17,186.326 3766,215.5C 3753.73,261.727 3723.89,288.227 3676.5,295C 3632.89,298.714 3599.06,282.547 3575,246.5C 3557.25,211.789 3555.91,176.455 3571,140.5C 3588.69,107.985 3615.85,88.9851 3652.5,83.5 Z M 3658.5,102.5 C 3703.46,103.056 3731.62,125.056 3743,168.5C 3750.08,204.052 3740.58,234.218 3714.5,259C 3681.76,281.975 3648.76,282.308 3615.5,260C 3589.28,235.336 3579.45,205.169 3586,169.5C 3595.06,130.596 3619.23,108.263 3658.5,102.5 Z M 3644.5,149.5 C 3656.21,149.199 3667.87,149.699 3679.5,151C 3686.99,152.821 3691.32,157.488 3692.5,165C 3692.44,172.46 3689.11,177.793 3682.5,181C 3669.93,183.061 3657.26,183.895 3644.5,183.5C 3644.5,172.167 3644.5,160.833 3644.5,149.5 Z"/></g>
<g><path style="opacity:1" fill="#001da3" d="M 3077.5,84.5 C 3207.5,84.5 3337.5,84.5 3467.5,84.5C 3499.95,443.823 3532.29,803.156 3564.5,1162.5C 3465.17,1162.5 3365.83,1162.5 3266.5,1162.5C 3264.13,1108.81 3261.47,1055.15 3258.5,1001.5C 3137.17,1001.5 3015.83,1001.5 2894.5,1001.5C 2870.25,1055.16 2845.59,1108.66 2820.5,1162C 2714.5,1162.83 2608.5,1162.67 2502.5,1161.5C 2694.43,802.632 2886.1,443.632 3077.5,84.5 Z M 3229.5,272.5 C 3230.5,272.5 3231.5,272.5 3232.5,272.5C 3228.61,361.51 3229.11,450.51 3234,539.5C 3238.54,626.547 3243.37,713.547 3248.5,800.5C 3163.5,801.667 3078.5,801.833 2993.5,801C 3068.71,640.072 3141.88,478.239 3213,315.5C 3218.8,301.255 3224.3,286.922 3229.5,272.5 Z"/></g>
<g><path style="opacity:1" fill="#001da3" d="M 3624.5,132.5 C 3645.2,132.085 3665.87,132.585 3686.5,134C 3706.49,139.025 3714.99,151.858 3712,172.5C 3708.84,188.651 3699.01,197.484 3682.5,199C 3693.04,215.918 3703.71,232.751 3714.5,249.5C 3706.85,250.665 3699.19,250.831 3691.5,250C 3681.9,233.403 3671.9,217.069 3661.5,201C 3655.84,200.501 3650.18,200.334 3644.5,200.5C 3644.5,217.167 3644.5,233.833 3644.5,250.5C 3637.83,250.5 3631.17,250.5 3624.5,250.5C 3624.5,211.167 3624.5,171.833 3624.5,132.5 Z M 3644.5,149.5 C 3644.5,160.833 3644.5,172.167 3644.5,183.5C 3657.26,183.895 3669.93,183.061 3682.5,181C 3689.11,177.793 3692.44,172.46 3692.5,165C 3691.32,157.488 3686.99,152.821 3679.5,151C 3667.87,149.699 3656.21,149.199 3644.5,149.5 Z"/></g>
<g><path style="opacity:1" fill="#feac00" d="M 2905.5,1387.5 C 3127.84,1385.23 3349.51,1396.23 3570.5,1420.5C 3565.58,1539.51 3560.42,1658.51 3555,1777.5C 3135.23,1687.64 2710.73,1647.81 2281.5,1658C 1812.41,1671.35 1354.08,1748.35 906.5,1889C 713.655,1950.22 524.321,2020.39 338.5,2099.5C 338.168,2087.48 338.501,2075.48 339.5,2063.5C 556.043,1956.83 776.376,1859 1000.5,1770C 1290.11,1656.13 1587.11,1566.47 1891.5,1501C 2225.96,1430.19 2563.96,1392.36 2905.5,1387.5 Z"/></g>
</svg>
